<?xml version="1.0" encoding="UTF-8" ?>
<svg version="1.1" width="256" height="256" xmlns="http://www.w3.org/2000/svg" shape-rendering="crispEdges">
<rect x="0" y="0" width="64" height="64" fill="#000000" />
<rect x="64" y="0" width="64" height="64" fill="#1B1D1E" />
<rect x="128" y="0" width="64" height="64" fill="#1B1D1E" />
<rect x="192" y="0" width="64" height="64" fill="#000000" />
<rect x="0" y="64" width="64" height="64" fill="#3E3D32" />
<rect x="64" y="64" width="64" height="64" fill="#272820" />
<rect x="128" y="64" width="64" height="64" fill="#3E3D32" />
<rect x="192" y="64" width="64" height="64" fill="#000000" />
<rect x="0" y="128" width="64" height="64" fill="#3E3D32" />
<rect x="64" y="128" width="64" height="64" fill="#1B1D1E" />
<rect x="128" y="128" width="64" height="64" fill="#272820" />
<rect x="192" y="128" width="64" height="64" fill="#000000" />
<rect x="0" y="192" width="64" height="64" fill="#000000" />
<rect x="64" y="192" width="64" height="64" fill="#000000" />
<rect x="128" y="192" width="64" height="64" fill="#000000" />
</svg>