<?xml version="1.0" encoding="UTF-8" ?>
<svg version="1.1" width="64" height="64" xmlns="http://www.w3.org/2000/svg" shape-rendering="crispEdges">
<rect x="0" y="0" width="16" height="16" fill="#000000" />
<rect x="16" y="0" width="16" height="16" fill="#1B1D1E" />
<rect x="32" y="0" width="16" height="16" fill="#1B1D1E" />
<rect x="48" y="0" width="16" height="16" fill="#000000" />
<rect x="0" y="16" width="16" height="16" fill="#3E3D32" />
<rect x="16" y="16" width="16" height="16" fill="#272820" />
<rect x="32" y="16" width="16" height="16" fill="#3E3D32" />
<rect x="48" y="16" width="16" height="16" fill="#000000" />
<rect x="0" y="32" width="16" height="16" fill="#3E3D32" />
<rect x="16" y="32" width="16" height="16" fill="#1B1D1E" />
<rect x="32" y="32" width="16" height="16" fill="#272820" />
<rect x="48" y="32" width="16" height="16" fill="#000000" />
<rect x="0" y="48" width="16" height="16" fill="#000000" />
<rect x="16" y="48" width="16" height="16" fill="#000000" />
<rect x="32" y="48" width="16" height="16" fill="#000000" />
</svg>